<svg width="1024" height="1024" viewBox="0 0 1024 1024" fill="none" xmlns="http://www.w3.org/2000/svg">
<g clip-path="url(#clip0_102_49)">
<rect width="1024" height="1024" rx="177" fill="url(#paint0_linear_102_49)"/>
<g clip-path="url(#clip1_102_49)">
<path d="M495.042 658.656C490.725 643.289 482.196 636.936 475.808 634.311C461.167 628.303 439.447 632.101 417.692 644.532C389.584 660.589 361.372 662.005 338.198 648.607C319.724 637.902 306.947 618.703 302.182 594.566C301.526 591.285 301.077 588.177 300.766 585.035C300.593 583.861 300.49 582.583 300.386 581.029C300.214 578.232 300.11 575.884 300.11 573.57C300.11 540.42 314.336 512.381 338.163 498.57C361.334 485.138 389.546 486.588 417.657 502.645C439.411 515.042 461.132 518.874 475.773 512.866C482.162 510.242 490.691 503.888 494.972 488.556C496.181 484.274 497.217 474.951 497.976 462.243C498.874 447.844 500.186 437.45 501.879 431.372C509.234 405.094 525.325 393.63 537.48 388.658C560.063 379.369 591.003 383.789 620.215 400.467C639.242 411.345 657.509 412.829 671.667 404.611C686.723 395.875 695.735 376.917 695.735 353.885C695.735 352.193 695.666 350.432 695.528 348.291C695.459 347.048 695.39 346.115 695.286 345.286C695.045 343.007 694.734 340.763 694.25 338.346C691.074 322.219 683.062 309.72 671.702 303.158C657.544 294.974 639.311 296.459 620.25 307.302C591.037 323.981 560.131 328.401 537.515 319.111C525.325 314.104 509.268 302.64 501.879 276.327C492.038 241.036 493.902 193.968 498.909 146.283C477.362 140.931 454.813 138.065 431.573 138.065C285.507 138.065 165.681 250.429 153.983 393.394C153.983 393.394 153.879 414.872 145.661 430.17L71.4193 568.707C68.2079 574.681 70.5906 582.002 76.7026 584.937L144.073 617.362C150.185 620.331 155.192 628.273 155.192 635.042V776.519C155.192 783.321 160.752 788.846 167.554 788.846H308.029C314.832 788.846 321.842 794.198 323.672 800.725L323.741 800.966L323.292 882.353C323.81 884.322 325.951 885.91 327.988 885.91H490.187C497.577 827.828 507.695 704.035 495.056 658.663L495.042 658.656Z" fill="url(#paint1_linear_102_49)"/>
<path d="M952.6 568.701L878.359 430.164C870.175 414.832 870.037 393.388 870.037 393.388C858.331 250.43 738.505 138.059 592.446 138.059C570.001 138.059 548.212 140.753 527.32 145.76C522.452 191.237 520.207 237.298 529.012 268.798C533.329 284.164 541.858 290.552 548.246 293.177C562.887 299.185 584.607 295.352 606.362 282.956C634.471 266.898 662.683 265.483 685.856 278.881C704.33 289.585 717.142 308.785 721.873 332.922C722.529 336.168 722.978 339.31 723.288 342.418C723.426 343.593 723.496 344.87 723.634 346.424C723.806 349.221 723.91 351.569 723.91 353.883C723.91 387.033 709.683 415.072 685.857 428.883C662.686 442.315 634.474 440.865 606.363 424.808C584.608 412.412 562.888 408.579 548.247 414.587C541.858 417.211 533.329 423.565 529.013 438.897C528.219 441.729 527.079 448.151 526.147 462.827V462.861C525.249 478.504 523.902 489.658 522.107 496.115C514.717 522.394 498.66 533.858 486.505 538.83C463.922 548.119 432.982 543.699 403.77 527.021C384.743 516.143 366.476 514.659 352.318 522.877C337.262 531.613 328.25 550.571 328.25 573.603C328.25 575.261 328.319 577.056 328.457 579.197C328.526 580.44 328.63 581.373 328.699 582.201C328.906 584.48 329.251 586.725 329.735 589.142C332.912 605.268 340.923 617.768 352.283 624.33C366.407 632.513 384.674 631.029 403.735 620.186C432.948 603.542 463.854 599.122 486.47 608.376C498.66 613.384 514.717 624.848 522.106 651.161C535.366 698.641 527.528 814.155 518.481 885.966H696.003C698.04 885.966 700.146 884.377 700.699 882.409L700.215 801.022L700.284 800.78C702.115 794.254 709.159 788.902 715.927 788.902H856.439C863.241 788.902 868.766 783.342 868.766 776.574L868.801 635.061C868.801 628.258 873.808 620.315 879.92 617.381L947.29 584.955C953.402 581.986 955.819 574.7 952.608 568.691L952.6 568.701Z" fill="url(#paint2_linear_102_49)"/>
</g>
</g>
<defs>
<linearGradient id="paint0_linear_102_49" x1="512" y1="0" x2="512" y2="1024" gradientUnits="userSpaceOnUse">
<stop stop-color="#39363B"/>
<stop offset="1" stop-color="#211F22"/>
</linearGradient>
<linearGradient id="paint1_linear_102_49" x1="382.862" y1="138.065" x2="382.862" y2="885.91" gradientUnits="userSpaceOnUse">
<stop stop-color="white"/>
<stop offset="1" stop-color="#CFCFCF"/>
</linearGradient>
<linearGradient id="paint2_linear_102_49" x1="641.14" y1="138.059" x2="641.14" y2="885.966" gradientUnits="userSpaceOnUse">
<stop stop-color="white"/>
<stop offset="1" stop-color="#CFCFCF"/>
</linearGradient>
<clipPath id="clip0_102_49">
<rect width="1024" height="1024" fill="white"/>
</clipPath>
<clipPath id="clip1_102_49">
<rect width="884" height="884" fill="white" transform="translate(70 70)"/>
</clipPath>
</defs>
</svg>
